<mxfile host="Electron" modified="2024-11-25T16:22:00.326Z" agent="Mozilla/5.0 (Windows NT 10.0; Win64; x64) AppleWebKit/537.36 (KHTML, like Gecko) draw.io/21.1.2 Chrome/106.0.5249.199 Electron/21.4.3 Safari/537.36" etag="zRIPtaU8HcPXYxuRM_8q" version="21.1.2" type="device">
  <diagram name="Page-1" id="wJIKPLTFQOaJQyBs_2nF">
    <mxGraphModel dx="1485" dy="696" grid="1" gridSize="10" guides="1" tooltips="1" connect="1" arrows="1" fold="1" page="1" pageScale="1" pageWidth="1700" pageHeight="1100" math="0" shadow="0">
      <root>
        <mxCell id="0" />
        <mxCell id="1" parent="0" />
        <mxCell id="loek9d_LHtl4OZIl1yKU-4" style="edgeStyle=orthogonalEdgeStyle;rounded=0;orthogonalLoop=1;jettySize=auto;html=1;" edge="1" parent="1" source="loek9d_LHtl4OZIl1yKU-1" target="loek9d_LHtl4OZIl1yKU-3">
          <mxGeometry relative="1" as="geometry" />
        </mxCell>
        <mxCell id="loek9d_LHtl4OZIl1yKU-1" value="Start" style="strokeWidth=2;html=1;shape=mxgraph.flowchart.terminator;whiteSpace=wrap;" vertex="1" parent="1">
          <mxGeometry x="240" y="60" width="100" height="60" as="geometry" />
        </mxCell>
        <mxCell id="loek9d_LHtl4OZIl1yKU-2" value="Stop" style="strokeWidth=2;html=1;shape=mxgraph.flowchart.terminator;whiteSpace=wrap;" vertex="1" parent="1">
          <mxGeometry x="240" y="1080" width="100" height="60" as="geometry" />
        </mxCell>
        <mxCell id="loek9d_LHtl4OZIl1yKU-11" style="edgeStyle=orthogonalEdgeStyle;rounded=0;orthogonalLoop=1;jettySize=auto;html=1;" edge="1" parent="1" source="loek9d_LHtl4OZIl1yKU-3" target="loek9d_LHtl4OZIl1yKU-5">
          <mxGeometry relative="1" as="geometry" />
        </mxCell>
        <mxCell id="loek9d_LHtl4OZIl1yKU-3" value="a, b, c = 0" style="rounded=0;whiteSpace=wrap;html=1;" vertex="1" parent="1">
          <mxGeometry x="230" y="170" width="120" height="50" as="geometry" />
        </mxCell>
        <mxCell id="loek9d_LHtl4OZIl1yKU-12" style="edgeStyle=orthogonalEdgeStyle;rounded=0;orthogonalLoop=1;jettySize=auto;html=1;entryX=0.5;entryY=0;entryDx=0;entryDy=0;" edge="1" parent="1" source="loek9d_LHtl4OZIl1yKU-5" target="loek9d_LHtl4OZIl1yKU-6">
          <mxGeometry relative="1" as="geometry" />
        </mxCell>
        <mxCell id="loek9d_LHtl4OZIl1yKU-5" value="OUTPUT &quot;Enter number 1 :&quot;" style="shape=parallelogram;perimeter=parallelogramPerimeter;whiteSpace=wrap;html=1;fixedSize=1;" vertex="1" parent="1">
          <mxGeometry x="195" y="270" width="190" height="60" as="geometry" />
        </mxCell>
        <mxCell id="loek9d_LHtl4OZIl1yKU-13" style="edgeStyle=orthogonalEdgeStyle;rounded=0;orthogonalLoop=1;jettySize=auto;html=1;entryX=0.5;entryY=0;entryDx=0;entryDy=0;" edge="1" parent="1" source="loek9d_LHtl4OZIl1yKU-6" target="loek9d_LHtl4OZIl1yKU-7">
          <mxGeometry relative="1" as="geometry" />
        </mxCell>
        <mxCell id="loek9d_LHtl4OZIl1yKU-6" value="INPUT a" style="shape=parallelogram;perimeter=parallelogramPerimeter;whiteSpace=wrap;html=1;fixedSize=1;" vertex="1" parent="1">
          <mxGeometry x="230" y="370" width="120" height="60" as="geometry" />
        </mxCell>
        <mxCell id="loek9d_LHtl4OZIl1yKU-14" style="edgeStyle=orthogonalEdgeStyle;rounded=0;orthogonalLoop=1;jettySize=auto;html=1;entryX=0.5;entryY=0;entryDx=0;entryDy=0;" edge="1" parent="1" source="loek9d_LHtl4OZIl1yKU-7" target="loek9d_LHtl4OZIl1yKU-8">
          <mxGeometry relative="1" as="geometry" />
        </mxCell>
        <mxCell id="loek9d_LHtl4OZIl1yKU-7" value="OUTPUT &quot;Enter number 2 :&quot;" style="shape=parallelogram;perimeter=parallelogramPerimeter;whiteSpace=wrap;html=1;fixedSize=1;" vertex="1" parent="1">
          <mxGeometry x="195" y="470" width="190" height="60" as="geometry" />
        </mxCell>
        <mxCell id="loek9d_LHtl4OZIl1yKU-15" style="edgeStyle=orthogonalEdgeStyle;rounded=0;orthogonalLoop=1;jettySize=auto;html=1;entryX=0.5;entryY=0;entryDx=0;entryDy=0;" edge="1" parent="1" source="loek9d_LHtl4OZIl1yKU-8" target="loek9d_LHtl4OZIl1yKU-9">
          <mxGeometry relative="1" as="geometry" />
        </mxCell>
        <mxCell id="loek9d_LHtl4OZIl1yKU-8" value="INPUT b" style="shape=parallelogram;perimeter=parallelogramPerimeter;whiteSpace=wrap;html=1;fixedSize=1;" vertex="1" parent="1">
          <mxGeometry x="230" y="570" width="120" height="60" as="geometry" />
        </mxCell>
        <mxCell id="loek9d_LHtl4OZIl1yKU-16" style="edgeStyle=orthogonalEdgeStyle;rounded=0;orthogonalLoop=1;jettySize=auto;html=1;entryX=0.5;entryY=0;entryDx=0;entryDy=0;" edge="1" parent="1" source="loek9d_LHtl4OZIl1yKU-9" target="loek9d_LHtl4OZIl1yKU-10">
          <mxGeometry relative="1" as="geometry" />
        </mxCell>
        <mxCell id="loek9d_LHtl4OZIl1yKU-9" value="OUTPUT &quot;Enter number 3 :&quot;" style="shape=parallelogram;perimeter=parallelogramPerimeter;whiteSpace=wrap;html=1;fixedSize=1;" vertex="1" parent="1">
          <mxGeometry x="195" y="670" width="190" height="60" as="geometry" />
        </mxCell>
        <mxCell id="loek9d_LHtl4OZIl1yKU-18" style="edgeStyle=orthogonalEdgeStyle;rounded=0;orthogonalLoop=1;jettySize=auto;html=1;entryX=0.5;entryY=0;entryDx=0;entryDy=0;" edge="1" parent="1" source="loek9d_LHtl4OZIl1yKU-10" target="loek9d_LHtl4OZIl1yKU-17">
          <mxGeometry relative="1" as="geometry" />
        </mxCell>
        <mxCell id="loek9d_LHtl4OZIl1yKU-10" value="INPUT c" style="shape=parallelogram;perimeter=parallelogramPerimeter;whiteSpace=wrap;html=1;fixedSize=1;" vertex="1" parent="1">
          <mxGeometry x="230" y="770" width="120" height="60" as="geometry" />
        </mxCell>
        <mxCell id="loek9d_LHtl4OZIl1yKU-20" style="edgeStyle=orthogonalEdgeStyle;rounded=0;orthogonalLoop=1;jettySize=auto;html=1;entryX=0.5;entryY=0;entryDx=0;entryDy=0;" edge="1" parent="1" source="loek9d_LHtl4OZIl1yKU-17" target="loek9d_LHtl4OZIl1yKU-19">
          <mxGeometry relative="1" as="geometry" />
        </mxCell>
        <mxCell id="loek9d_LHtl4OZIl1yKU-17" value="Answer = a + b + c" style="rounded=0;whiteSpace=wrap;html=1;" vertex="1" parent="1">
          <mxGeometry x="230" y="870" width="120" height="50" as="geometry" />
        </mxCell>
        <mxCell id="loek9d_LHtl4OZIl1yKU-21" style="edgeStyle=orthogonalEdgeStyle;rounded=0;orthogonalLoop=1;jettySize=auto;html=1;entryX=0.5;entryY=0;entryDx=0;entryDy=0;entryPerimeter=0;" edge="1" parent="1" source="loek9d_LHtl4OZIl1yKU-19" target="loek9d_LHtl4OZIl1yKU-2">
          <mxGeometry relative="1" as="geometry" />
        </mxCell>
        <mxCell id="loek9d_LHtl4OZIl1yKU-19" value="OUTPUT &quot;Answer = &quot; Answer" style="shape=parallelogram;perimeter=parallelogramPerimeter;whiteSpace=wrap;html=1;fixedSize=1;" vertex="1" parent="1">
          <mxGeometry x="195" y="970" width="190" height="60" as="geometry" />
        </mxCell>
      </root>
    </mxGraphModel>
  </diagram>
</mxfile>
